<?xml version="1.0" encoding="UTF-8"?>
<svg id="Layer_1" xmlns="http://www.w3.org/2000/svg" version="1.1" viewBox="0 0 1070.59 293.63">
  <!-- Generator: Adobe Illustrator 30.6.0, SVG Export Plug-In . SVG Version: 2.1.4 Build 109)  -->
  <defs>
    <style>
      .st0 {
        fill: #ab6744;
      }
    </style>
  </defs>
  <path class="st0" d="M.99,72.65V1.48h8.9v31.14h65.24V1.48h8.9v71.17h-8.9v-32.62H9.88v32.62H.99Z"/>
  <path class="st0" d="M135.92,74.14c-6.95,0-12.67-.47-17.14-1.41-4.48-.94-7.98-2.68-10.49-5.21-2.52-2.53-4.28-6.18-5.28-10.94-1-4.76-1.51-10.95-1.51-18.58v-1.85c0-6.3.31-11.59.93-15.87.62-4.28,1.68-7.76,3.2-10.45,1.51-2.69,3.57-4.74,6.19-6.16,2.61-1.42,5.89-2.39,9.85-2.9,3.95-.51,8.71-.76,14.27-.76h18.67c5.56,0,10.32.25,14.27.76,3.95.51,7.24,1.48,9.85,2.9,2.61,1.42,4.67,3.48,6.18,6.16,1.51,2.69,2.58,6.17,3.2,10.45.62,4.28.93,9.57.93,15.87v1.85c0,7.63-.5,13.82-1.51,18.58-1,4.76-2.76,8.4-5.28,10.94-2.52,2.53-6.02,4.27-10.5,5.21-4.48.94-10.19,1.41-17.14,1.41h-18.67ZM135.92,66.45h18.67c4.42,0,8.14-.16,11.17-.46,3.03-.31,5.49-.97,7.39-1.99,1.9-1.02,3.35-2.56,4.36-4.63,1-2.07,1.69-4.83,2.06-8.29.37-3.46.56-7.81.56-13.07v-1.85c0-5.44-.19-9.92-.56-13.44-.37-3.52-1.06-6.3-2.06-8.34-1-2.04-2.46-3.53-4.36-4.47-1.9-.94-4.36-1.54-7.39-1.81-3.03-.26-6.75-.39-11.17-.39h-18.67c-4.42,0-8.14.13-11.17.39-3.03.26-5.49.87-7.39,1.81-1.9.94-3.35,2.43-4.35,4.47-1.01,2.04-1.69,4.82-2.06,8.34-.37,3.52-.56,8-.56,13.44v1.85c0,5.25.19,9.61.56,13.07.37,3.46,1.06,6.23,2.06,8.29,1,2.07,2.45,3.61,4.35,4.63,1.9,1.02,4.36,1.68,7.39,1.99,3.03.31,6.75.46,11.17.46Z"/>
  <path class="st0" d="M210.23,72.65V1.48h13.25l43.05,58.06L308.92,1.48h13.25v71.17h-8.9V9.54l-42.49,58.43h-8.06l-43.6-58.43v63.11h-8.9Z"/>
  <path class="st0" d="M349.8,72.65V1.48h69.87v7.41h-60.98v23.72h58.43v7.41h-58.43v25.21h368.88v7.41h-377.78Z"/>
  <path class="st0" d="M.8,187.54v-71.17h67.09v7.41H9.7v23.72h55.56v7.41H9.7v32.62H.8Z"/>
  <path class="st0" d="M97.81,187.54l41.52-71.17h11.86l41.52,71.17h-10.38l-8.9-16.31h-56.34l-8.9,16.31h-10.38ZM121.53,163.82h47.45l-23.72-41.52-23.72,41.52Z"/>
  <path class="st0" d="M301,166.97c0-2.75-.22-4.91-.65-6.48-.43-1.58-1.41-2.74-2.92-3.5-1.51-.76-3.86-1.25-7.04-1.48-3.18-.23-7.54-.39-13.07-.49l-25.76-.37c-6.36-.09-11.48-.48-15.34-1.16-3.86-.68-6.78-1.75-8.76-3.22-1.98-1.47-3.3-3.43-3.96-5.91-.66-2.47-1-5.56-1-9.27,0-4.05.46-7.38,1.37-10.01.91-2.63,2.56-4.68,4.96-6.16,2.39-1.48,5.78-2.53,10.17-3.13,4.39-.6,10.05-.9,17-.9h19.83c6.3,0,11.55.2,15.75.6,4.2.4,7.54,1.33,10.01,2.78,2.47,1.45,4.24,3.71,5.31,6.77,1.07,3.06,1.6,7.26,1.6,12.6h-8.9c0-4.14-.39-7.27-1.18-9.38-.79-2.11-2.09-3.56-3.89-4.33-1.81-.77-4.24-1.19-7.3-1.25-3.06-.06-6.86-.09-11.4-.09h-19.37c-5.53,0-9.95.11-13.27.32-3.32.22-5.83.71-7.53,1.48-1.7.77-2.83,2.01-3.41,3.71-.57,1.7-.86,4.03-.86,7,0,2.5.2,4.51.6,6.02.4,1.51,1.3,2.66,2.71,3.45,1.41.79,3.58,1.33,6.51,1.62,2.94.29,6.94.47,12,.53l27.62.37c6.49.09,11.67.47,15.55,1.14,3.88.66,6.78,1.74,8.71,3.22,1.93,1.48,3.21,3.48,3.84,6,.63,2.52.95,5.69.95,9.52,0,4.17-.39,7.67-1.18,10.5-.79,2.83-2.31,5.09-4.56,6.79-2.25,1.7-5.51,2.92-9.78,3.66s-9.87,1.11-16.82,1.11h-21.69c-6.33,0-11.65-.28-15.94-.84-4.29-.56-7.72-1.67-10.26-3.36-2.55-1.68-4.38-4.19-5.49-7.53-1.11-3.33-1.67-7.78-1.67-13.34h8.9c0,4.36.36,7.72,1.07,10.1.71,2.38,1.95,4.09,3.73,5.12,1.78,1.04,4.26,1.65,7.46,1.85,3.2.2,7.27.3,12.21.3h21.22c5.53,0,9.9-.18,13.11-.53,3.21-.35,5.59-1.03,7.14-2.04,1.54-1.01,2.54-2.45,2.99-4.33.45-1.88.67-4.37.67-7.46Z"/>
  <path class="st0" d="M349.8,187.54v-71.17h8.9v31.14h65.24v-31.14h8.9v71.17h-8.9v-32.62h-65.24v32.62h-8.9Z"/>
  <path class="st0" d="M478.98,187.54v-71.17h8.9v71.17h-8.9Z"/>
  <path class="st0" d="M562.16,189.02c-6.95,0-12.67-.47-17.14-1.41-4.48-.94-7.98-2.68-10.49-5.21-2.52-2.53-4.28-6.18-5.28-10.94-1-4.75-1.51-10.95-1.51-18.58v-1.85c0-6.3.31-11.59.93-15.87.62-4.28,1.68-7.76,3.2-10.45,1.51-2.69,3.57-4.74,6.19-6.16,2.61-1.42,5.89-2.39,9.85-2.9,3.95-.51,8.71-.76,14.27-.76h18.67c5.56,0,10.32.25,14.27.76,3.95.51,7.24,1.48,9.85,2.9,2.61,1.42,4.67,3.48,6.18,6.16,1.51,2.69,2.58,6.17,3.2,10.45.62,4.28.93,9.57.93,15.87v1.85c0,7.63-.5,13.82-1.51,18.58-1,4.76-2.76,8.4-5.28,10.94-2.52,2.53-6.02,4.27-10.5,5.21-4.48.94-10.19,1.41-17.14,1.41h-18.67ZM562.16,181.33h18.67c4.42,0,8.14-.15,11.17-.46,3.03-.31,5.49-.97,7.39-1.99,1.9-1.02,3.35-2.56,4.36-4.64,1-2.07,1.69-4.83,2.06-8.29.37-3.46.56-7.81.56-13.07v-1.85c0-5.44-.19-9.92-.56-13.44-.37-3.52-1.06-6.3-2.06-8.34-1-2.04-2.46-3.53-4.36-4.47-1.9-.94-4.36-1.54-7.39-1.81-3.03-.26-6.75-.39-11.17-.39h-18.67c-4.42,0-8.14.13-11.17.39-3.03.26-5.49.87-7.39,1.81-1.9.94-3.35,2.43-4.35,4.47-1.01,2.04-1.69,4.82-2.06,8.34-.37,3.52-.56,8-.56,13.44v1.85c0,5.25.19,9.61.56,13.07.37,3.46,1.06,6.23,2.06,8.29,1,2.07,2.45,3.61,4.35,4.64,1.9,1.02,4.36,1.68,7.39,1.99,3.03.31,6.75.46,11.17.46Z"/>
  <path class="st0" d="M637.82,187.54v-71.17h9.27l71.5,60.19h.09v-60.19h8.9v71.17h-9.27l-71.5-60.7h-.09v60.7h-8.9Z"/>
  <path class="st0" d="M20.76,293.63c-5.9,0-10.51-.85-13.83-2.55-3.32-1.7-5.38-5.02-6.19-9.96-.49-2.94-.74-6.67-.74-11.21v-2.97h8.9v2.97c0,7.04.87,11.65,2.6,13.81.96,1.18,2.2,1.92,3.73,2.22,1.53.31,3.37.47,5.54.47h20.76c5.34,0,9.15-.95,11.42-2.85,2.27-1.9,3.41-5.46,3.41-10.68v-50.41h8.9v50.41c0,7.54-1.73,12.85-5.19,15.94-3.58,3.21-9.76,4.82-18.53,4.82h-20.76Z"/>
  <path class="st0" d="M97.81,293.63l41.52-71.17h11.86l41.52,71.17h-10.38l-8.9-16.31h-56.34l-8.9,16.31h-10.38ZM121.53,269.9h47.45l-23.72-41.52-23.72,41.52Z"/>
  <path class="st0" d="M210.23,293.63v-71.17h13.25l43.05,58.06,42.4-58.06h13.25v71.17h-8.9v-63.11l-42.49,58.43h-8.06l-43.6-58.43v63.11h-8.9Z"/>
  <path class="st0" d="M343.86,293.63l41.52-71.17h11.86l41.52,71.17h-10.38l-8.9-16.31h-56.34l-8.9,16.31h-10.38ZM367.59,269.9h47.45l-23.72-41.52-23.72,41.52Z"/>
  <path class="st0" d="M467.24,286.22v-63.78h-8.88v71.18h59.05v-7.4h-50.17Z"/>
  <polygon class="st0" points="607.09 286.22 607.09 293.63 535.91 293.63 535.91 222.44 605.77 222.44 605.77 229.88 544.79 229.88 544.79 253.59 603.23 253.59 603.23 260.99 544.79 260.99 544.79 286.22 607.09 286.22"/>
  <path class="st0" d="M639.07,293.63v-71.17h52.82c6.95,0,12.66.42,17.14,1.25,4.48.83,7.98,2.45,10.49,4.84,2.52,2.39,4.28,5.88,5.28,10.45,1,4.57,1.51,10.61,1.51,18.12v1.85c0,7.26-.5,13.17-1.51,17.72-1,4.56-2.77,8.06-5.28,10.52-2.52,2.45-6.02,4.14-10.49,5.05-4.48.91-10.19,1.37-17.14,1.37h-52.82ZM647.97,285.93h43.93c5.53,0,9.98-.26,13.34-.79,3.37-.52,5.93-1.67,7.69-3.43,1.76-1.76,2.95-4.45,3.57-8.06.62-3.61.93-8.51.93-14.69v-1.85c0-5.13-.19-9.36-.56-12.7-.37-3.33-1.06-5.97-2.06-7.9-1-1.93-2.46-3.35-4.36-4.26-1.9-.91-4.36-1.49-7.39-1.74-3.03-.25-6.75-.37-11.17-.37h-43.93v55.79Z"/>
  <path class="st0" d="M747.24,293.63v-71.17h52.82c6.95,0,12.67.42,17.15,1.25,4.48.83,7.98,2.45,10.49,4.84,2.52,2.39,4.28,5.88,5.28,10.45,1.01,4.57,1.51,10.61,1.51,18.12v1.85c0,7.26-.5,13.17-1.51,17.72-1,4.56-2.76,8.06-5.28,10.52-2.52,2.45-6.01,4.14-10.49,5.05-4.48.91-10.19,1.37-17.15,1.37h-52.82ZM756.14,285.93h43.92c5.53,0,9.98-.26,13.35-.79,3.37-.52,5.93-1.67,7.69-3.43,1.76-1.76,2.95-4.45,3.57-8.06.62-3.61.93-8.51.93-14.69v-1.85c0-5.13-.19-9.36-.56-12.7-.37-3.33-1.06-5.97-2.06-7.9-1.01-1.93-2.46-3.35-4.36-4.26-1.9-.91-4.37-1.49-7.39-1.74-3.03-.25-6.75-.37-11.17-.37h-43.92v55.79Z"/>
  <path class="st0" d="M856.54,293.63v-71.17h8.9v71.17h-8.9Z"/>
  <path class="st0" d="M889.48,293.63v-71.17h9.27l71.49,60.19h.09v-60.19h8.9v71.17h-9.27l-71.5-60.7h-.09v60.7h-8.9Z"/>
  <path class="st0" d="M999.42,293.63v-71.17h69.87v7.42h-60.98v23.72h58.43v7.41h-58.43v25.21h62.27v7.41h-71.17Z"/>
</svg>